<?xml version="1.0" encoding="UTF-8"?>
<svg id="Capa_1" data-name="Capa 1" xmlns="http://www.w3.org/2000/svg" viewBox="0 0 44 44">
  <defs>
    <style>
      .cls-1 {
        fill: #ece7f5;
      }
    </style>
  </defs>
  <path class="cls-1" d="m22,41.15c-10.56,0-19.15-8.59-19.15-19.15S11.44,2.85,22,2.85s19.15,8.59,19.15,19.15-8.59,19.15-19.15,19.15Zm0-37.96C11.63,3.19,3.19,11.63,3.19,22s8.44,18.81,18.81,18.81,18.81-8.44,18.81-18.81S32.37,3.19,22,3.19Z"/>
  <path class="cls-1" d="m27.15,12.04h-10.3c-2.65,0-4.81,2.15-4.81,4.81v10.3c0,2.65,2.15,4.81,4.81,4.81h10.3c2.65,0,4.81-2.15,4.81-4.81v-10.3c0-2.65-2.15-4.81-4.81-4.81Zm3.09,14.76c0,1.89-1.54,3.43-3.43,3.43h-9.61c-1.89,0-3.43-1.54-3.43-3.43v-9.61c0-1.89,1.54-3.43,3.43-3.43h9.61c1.89,0,3.43,1.54,3.43,3.43v9.61Z"/>
  <path class="cls-1" d="m22.01,16.85c-2.84,0-5.15,2.31-5.15,5.15s2.31,5.15,5.15,5.15,5.15-2.31,5.15-5.15-2.31-5.15-5.15-5.15Zm0,8.58c-1.89,0-3.43-1.54-3.43-3.43s1.54-3.43,3.43-3.43,3.43,1.54,3.43,3.43-1.54,3.43-3.43,3.43Z"/>
  <circle class="cls-1" cx="27.5" cy="16.51" r="1.03"/>
</svg>