<?xml version="1.0" encoding="UTF-8"?>
<svg id="Capa_1" data-name="Capa 1" xmlns="http://www.w3.org/2000/svg" viewBox="0 0 44 44">
  <defs>
    <style>
      .cls-1 {
        fill: #ece7f5;
      }
    </style>
  </defs>
  <path class="cls-1" d="m22,40.59c-10.25,0-18.59-8.34-18.59-18.59S11.75,3.41,22,3.41s18.59,8.34,18.59,18.59-8.34,18.59-18.59,18.59Zm0-36.85C11.93,3.73,3.73,11.93,3.73,22s8.19,18.27,18.27,18.27,18.27-8.19,18.27-18.27S32.07,3.73,22,3.73Z"/>
  <g>
    <circle class="cls-1" cx="15.47" cy="14.7" r="2.37"/>
    <rect class="cls-1" x="13.5" y="18.66" width="3.96" height="11.87" rx=".62" ry=".62"/>
    <path class="cls-1" d="m30.9,23.01v6.72c0,.44-.36.79-.79.79h-2.37c-.44,0-.79-.36-.79-.79v-5.54c0-1.09-.89-1.98-1.98-1.98s-1.98.89-1.98,1.98v5.54c0,.44-.36.79-.79.79h-2.37c-.44,0-.79-.36-.79-.79v-10.28c0-.44.36-.79.79-.79h2.37c.44,0,.79.36.79.79v.51c.79-1.02,2.1-1.69,3.56-1.69,2.18,0,4.35,1.58,4.35,4.75Z"/>
  </g>
</svg>