<?xml version="1.0" encoding="UTF-8"?>
<svg id="Capa_1" data-name="Capa 1" xmlns="http://www.w3.org/2000/svg" viewBox="0 0 44 44">
  <defs>
    <style>
      .cls-1 {
        fill: #ece7f5;
      }
    </style>
  </defs>
  <path class="cls-1" d="m22,40.59c-10.25,0-18.59-8.34-18.59-18.59S11.75,3.41,22,3.41s18.59,8.34,18.59,18.59-8.34,18.59-18.59,18.59Zm0-36.85C11.93,3.73,3.73,11.93,3.73,22s8.19,18.27,18.27,18.27,18.27-8.19,18.27-18.27S32.07,3.73,22,3.73Z"/>
  <path class="cls-1" d="m30.17,14.82c-.17-.09-.33-.18-.49-.29-.46-.31-.89-.67-1.27-1.08-.95-1.08-1.3-2.18-1.43-2.95h0c-.11-.64-.06-1.05-.06-1.05h-4.31v16.66c0,.22,0,.44,0,.66,0,.03,0,.05,0,.08,0,.01,0,.02,0,.04h0c-.09,1.22-.78,2.31-1.84,2.91-.54.31-1.16.47-1.78.47-2.01,0-3.64-1.64-3.64-3.66s1.63-3.66,3.64-3.66c.38,0,.76.06,1.12.18v-4.39c-2.21-.29-4.45.37-6.16,1.8-.74.65-1.37,1.42-1.85,2.28-.18.31-.87,1.57-.95,3.62-.05,1.16.3,2.36.46,2.86h0c.1.3.51,1.3,1.17,2.14.53.68,1.16,1.27,1.87,1.76h0s.01,0,.01,0c2.09,1.42,4.4,1.32,4.4,1.32.4-.02,1.74,0,3.27-.72,1.69-.8,2.65-1.99,2.65-1.99.61-.71,1.1-1.52,1.44-2.4.39-1.03.52-2.25.52-2.75v-8.84c.05.03.75.49.75.49,0,0,1,.64,2.57,1.06,1.12.3,2.64.36,2.64.36v-4.28c-.53.06-1.61-.11-2.71-.66Z"/>
</svg>