<?xml version="1.0" encoding="UTF-8"?>
<svg id="Capa_1" data-name="Capa 1" xmlns="http://www.w3.org/2000/svg" viewBox="0 0 44 44">
  <defs>
    <style>
      .cls-1 {
        fill: #ece7f5;
      }
    </style>
  </defs>
  <path class="cls-1" d="m22,40.56c-10.23,0-18.56-8.32-18.56-18.56S11.77,3.44,22,3.44s18.56,8.32,18.56,18.56-8.32,18.56-18.56,18.56Zm0-36.79C11.95,3.76,3.76,11.95,3.76,22s8.18,18.24,18.24,18.24,18.24-8.18,18.24-18.24S32.05,3.76,22,3.76Z"/>
  <path class="cls-1" d="m27.45,20.57l-.31,2.46c-.05.41-.4.72-.81.72h-3.99v10.29c-.42.04-.85.06-1.28.06-.96,0-1.9-.1-2.81-.28v-10.07h-3.07c-.28,0-.51-.23-.51-.51v-3.08c0-.28.23-.51.51-.51h3.07v-4.62c0-2.83,2.29-5.13,5.11-5.13h3.58c.28,0,.51.23.51.51v3.08c0,.28-.23.51-.51.51h-2.56c-1.13,0-2.04.92-2.04,2.05v3.59h4.29c.49,0,.87.43.81.92Z"/>
</svg>