<?xml version="1.0" encoding="UTF-8"?>
<svg id="Capa_1" data-name="Capa 1" xmlns="http://www.w3.org/2000/svg" viewBox="0 0 44 44">
  <defs>
    <style>
      .cls-1 {
        fill: #ece7f5;
      }
    </style>
  </defs>
  <path class="cls-1" d="m22,40.59c-10.25,0-18.59-8.34-18.59-18.59S11.75,3.41,22,3.41s18.59,8.34,18.59,18.59-8.34,18.59-18.59,18.59Zm0-36.85C11.93,3.73,3.73,11.93,3.73,22s8.19,18.27,18.27,18.27,18.27-8.19,18.27-18.27S32.07,3.73,22,3.73Z"/>
  <path class="cls-1" d="m24.66,20.31l7.45-7.97h-2.83l-5.85,6.26-4.48-6.26h-7.74l7.84,10.95-7.84,8.38h2.83l6.23-6.67,4.77,6.67h7.74l-8.13-11.36Zm-9.46-5.92h2.7l10.9,15.23h-2.7l-10.9-15.23Z"/>
</svg>