<?xml version="1.0" encoding="UTF-8"?>
<svg id="Capa_1" data-name="Capa 1" xmlns="http://www.w3.org/2000/svg" viewBox="0 0 44 44">
  <defs>
    <style>
      .cls-1 {
        fill: #ece7f5;
      }
    </style>
  </defs>
  <path class="cls-1" d="m22,40.59c-10.25,0-18.59-8.34-18.59-18.59S11.75,3.41,22,3.41s18.59,8.34,18.59,18.59-8.34,18.59-18.59,18.59Zm0-36.85C11.93,3.73,3.73,11.93,3.73,22s8.19,18.27,18.27,18.27,18.27-8.19,18.27-18.27S32.07,3.73,22,3.73Z"/>
  <path class="cls-1" d="m29.94,14.19h-15.88c-1.57,0-2.84,1.27-2.84,2.84v9.93c0,1.57,1.27,2.84,2.84,2.84h15.88c1.57,0,2.84-1.27,2.84-2.84v-9.93c0-1.57-1.27-2.84-2.84-2.84Zm-5.39,8.49l-4.42,2.21c-.51.26-1.11-.12-1.11-.68v-4.41c0-.57.6-.94,1.11-.69l4.42,2.21c.56.28.56,1.09,0,1.37Z"/>
</svg>